<svg width="274" height="60" viewBox="0 0 274 60" fill="none" xmlns="http://www.w3.org/2000/svg">
<mask id="path-1-outside-1_1_111" maskUnits="userSpaceOnUse" x="-2" y="-1" width="277" height="62" fill="black">
<rect fill="white" x="-2" y="-1" width="277" height="62"/>
<path d="M12.6151 47L0.129261 3.36364H10.2074L17.4304 33.6832H17.7926L25.7614 3.36364H34.3906L42.3381 33.7472H42.7216L49.9446 3.36364H60.0227L47.5369 47H38.5455L30.2358 18.4702H29.8949L21.6065 47H12.6151ZM64.7901 47V14.2727H73.8668V47H64.7901ZM69.3498 10.054C68.0004 10.054 66.8427 9.60653 65.8768 8.71165C64.9251 7.80256 64.4492 6.71591 64.4492 5.4517C64.4492 4.2017 64.9251 3.12926 65.8768 2.23438C66.8427 1.32528 68.0004 0.870736 69.3498 0.870736C70.6992 0.870736 71.8498 1.32528 72.8015 2.23438C73.7674 3.12926 74.2504 4.2017 74.2504 5.4517C74.2504 6.71591 73.7674 7.80256 72.8015 8.71165C71.8498 9.60653 70.6992 10.054 69.3498 10.054ZM89.3622 37.5824L89.3835 26.6946H90.7045L101.188 14.2727H111.607L97.5227 30.7216H95.3707L89.3622 37.5824ZM81.1378 47V3.36364H90.2145V47H81.1378ZM101.592 47L91.9616 32.7457L98.0128 26.3324L112.224 47H101.592ZM116.06 47V14.2727H125.136V47H116.06ZM120.619 10.054C119.27 10.054 118.112 9.60653 117.146 8.71165C116.195 7.80256 115.719 6.71591 115.719 5.4517C115.719 4.2017 116.195 3.12926 117.146 2.23438C118.112 1.32528 119.27 0.870736 120.619 0.870736C121.969 0.870736 123.119 1.32528 124.071 2.23438C125.037 3.12926 125.52 4.2017 125.52 5.4517C125.52 6.71591 125.037 7.80256 124.071 8.71165C123.119 9.60653 121.969 10.054 120.619 10.054ZM132.578 47V3.36364H149.794C153.103 3.36364 155.923 3.99574 158.252 5.25994C160.582 6.50994 162.358 8.25 163.579 10.4801C164.815 12.696 165.433 15.2528 165.433 18.1506C165.433 21.0483 164.808 23.6051 163.558 25.821C162.308 28.0369 160.497 29.7628 158.125 30.9986C155.767 32.2344 152.912 32.8523 149.559 32.8523H138.586V25.4588H148.068C149.843 25.4588 151.306 25.1534 152.457 24.5426C153.622 23.9176 154.488 23.0582 155.056 21.9645C155.639 20.8565 155.93 19.5852 155.93 18.1506C155.93 16.7017 155.639 15.4375 155.056 14.358C154.488 13.2642 153.622 12.419 152.457 11.8224C151.292 11.2116 149.815 10.9062 148.025 10.9062H141.804V47H132.578ZM179.708 47.6179C177.62 47.6179 175.76 47.2557 174.126 46.5312C172.493 45.7926 171.2 44.706 170.248 43.2713C169.311 41.8224 168.842 40.0185 168.842 37.8594C168.842 36.0412 169.176 34.5142 169.843 33.2784C170.511 32.0426 171.42 31.0483 172.571 30.2955C173.721 29.5426 175.028 28.9744 176.491 28.5909C177.968 28.2074 179.517 27.9375 181.136 27.7812C183.039 27.5824 184.574 27.3977 185.738 27.2273C186.903 27.0426 187.748 26.7727 188.274 26.4176C188.799 26.0625 189.062 25.5369 189.062 24.8409V24.7131C189.062 23.3636 188.636 22.3196 187.784 21.581C186.946 20.8423 185.752 20.473 184.204 20.473C182.571 20.473 181.271 20.8352 180.305 21.5597C179.339 22.2699 178.7 23.1648 178.387 24.2443L169.993 23.5625C170.419 21.5739 171.257 19.8551 172.507 18.4062C173.757 16.9432 175.369 15.821 177.343 15.0398C179.332 14.2443 181.633 13.8466 184.247 13.8466C186.065 13.8466 187.805 14.0597 189.467 14.4858C191.143 14.9119 192.627 15.5724 193.92 16.4673C195.227 17.3622 196.257 18.5128 197.01 19.919C197.762 21.3111 198.139 22.9801 198.139 24.9261V47H189.531V42.4616H189.275C188.75 43.4844 188.047 44.3864 187.166 45.1676C186.285 45.9347 185.227 46.5384 183.991 46.9787C182.755 47.4048 181.328 47.6179 179.708 47.6179ZM182.308 41.3537C183.643 41.3537 184.822 41.0909 185.845 40.5653C186.868 40.0256 187.67 39.3011 188.252 38.392C188.835 37.483 189.126 36.4531 189.126 35.3026V31.8295C188.842 32.0142 188.451 32.1847 187.954 32.3409C187.471 32.483 186.924 32.6179 186.314 32.7457C185.703 32.8594 185.092 32.9659 184.481 33.0653C183.87 33.1506 183.316 33.2287 182.819 33.2997C181.754 33.456 180.824 33.7045 180.028 34.0455C179.233 34.3864 178.615 34.848 178.174 35.4304C177.734 35.9986 177.514 36.7088 177.514 37.5611C177.514 38.7969 177.961 39.7415 178.856 40.3949C179.765 41.0341 180.916 41.3537 182.308 41.3537ZM219.925 59.9545C216.985 59.9545 214.463 59.5497 212.361 58.7401C210.273 57.9446 208.611 56.858 207.375 55.4801C206.14 54.1023 205.337 52.554 204.968 50.8352L213.363 49.706C213.618 50.3594 214.023 50.9702 214.577 51.5384C215.131 52.1065 215.863 52.5611 216.772 52.902C217.695 53.2571 218.817 53.4347 220.138 53.4347C222.113 53.4347 223.739 52.9517 225.017 51.9858C226.31 51.0341 226.956 49.4361 226.956 47.1918V41.2045H226.573C226.175 42.1136 225.578 42.973 224.783 43.7827C223.988 44.5923 222.965 45.2528 221.715 45.7642C220.465 46.2756 218.973 46.5312 217.24 46.5312C214.783 46.5312 212.546 45.9631 210.529 44.8267C208.526 43.6761 206.928 41.9219 205.735 39.5639C204.556 37.1918 203.966 34.1946 203.966 30.5724C203.966 26.8651 204.57 23.7685 205.777 21.2827C206.985 18.7969 208.59 16.9361 210.593 15.7003C212.61 14.4645 214.819 13.8466 217.219 13.8466C219.051 13.8466 220.586 14.1591 221.821 14.7841C223.057 15.3949 224.051 16.1619 224.804 17.0852C225.571 17.9943 226.161 18.8892 226.573 19.7699H226.914V14.2727H235.926V47.3196C235.926 50.1037 235.245 52.4332 233.881 54.3082C232.517 56.1832 230.628 57.5895 228.213 58.527C225.813 59.4787 223.05 59.9545 219.925 59.9545ZM220.117 39.7131C221.58 39.7131 222.816 39.3509 223.824 38.6264C224.847 37.8878 225.628 36.8366 226.168 35.473C226.722 34.0952 226.999 32.4474 226.999 30.5298C226.999 28.6122 226.729 26.9503 226.189 25.544C225.65 24.1236 224.868 23.0227 223.846 22.2415C222.823 21.4602 221.58 21.0696 220.117 21.0696C218.625 21.0696 217.368 21.4744 216.346 22.2841C215.323 23.0795 214.549 24.1875 214.023 25.608C213.498 27.0284 213.235 28.669 213.235 30.5298C213.235 32.419 213.498 34.0526 214.023 35.4304C214.563 36.794 215.337 37.8523 216.346 38.6051C217.368 39.3437 218.625 39.7131 220.117 39.7131ZM258.064 47.6392C254.698 47.6392 251.8 46.9574 249.371 45.5938C246.956 44.2159 245.096 42.2699 243.789 39.7557C242.482 37.2273 241.828 34.2372 241.828 30.7855C241.828 27.419 242.482 24.4645 243.789 21.9219C245.096 19.3793 246.935 17.3977 249.307 15.9773C251.694 14.5568 254.492 13.8466 257.702 13.8466C259.861 13.8466 261.871 14.1946 263.732 14.8906C265.607 15.5724 267.24 16.6023 268.632 17.9801C270.039 19.358 271.132 21.0909 271.914 23.179C272.695 25.2528 273.086 27.6818 273.086 30.4659V32.9588H245.451V27.3338H264.542C264.542 26.027 264.257 24.8693 263.689 23.8608C263.121 22.8523 262.333 22.0639 261.324 21.4957C260.33 20.9134 259.172 20.6222 257.851 20.6222C256.473 20.6222 255.252 20.9418 254.186 21.581C253.135 22.206 252.311 23.0511 251.715 24.1165C251.118 25.1676 250.813 26.3395 250.799 27.6321V32.9801C250.799 34.5994 251.097 35.9986 251.694 37.1776C252.304 38.3565 253.164 39.2656 254.272 39.9048C255.38 40.544 256.694 40.8636 258.213 40.8636C259.222 40.8636 260.145 40.7216 260.983 40.4375C261.821 40.1534 262.539 39.7273 263.135 39.1591C263.732 38.5909 264.186 37.8949 264.499 37.071L272.894 37.625C272.468 39.642 271.594 41.4034 270.273 42.9091C268.966 44.4006 267.276 45.5653 265.202 46.4034C263.142 47.2273 260.763 47.6392 258.064 47.6392Z"/>
</mask>
<path d="M12.6151 47L0.129261 3.36364H10.2074L17.4304 33.6832H17.7926L25.7614 3.36364H34.3906L42.3381 33.7472H42.7216L49.9446 3.36364H60.0227L47.5369 47H38.5455L30.2358 18.4702H29.8949L21.6065 47H12.6151ZM64.7901 47V14.2727H73.8668V47H64.7901ZM69.3498 10.054C68.0004 10.054 66.8427 9.60653 65.8768 8.71165C64.9251 7.80256 64.4492 6.71591 64.4492 5.4517C64.4492 4.2017 64.9251 3.12926 65.8768 2.23438C66.8427 1.32528 68.0004 0.870736 69.3498 0.870736C70.6992 0.870736 71.8498 1.32528 72.8015 2.23438C73.7674 3.12926 74.2504 4.2017 74.2504 5.4517C74.2504 6.71591 73.7674 7.80256 72.8015 8.71165C71.8498 9.60653 70.6992 10.054 69.3498 10.054ZM89.3622 37.5824L89.3835 26.6946H90.7045L101.188 14.2727H111.607L97.5227 30.7216H95.3707L89.3622 37.5824ZM81.1378 47V3.36364H90.2145V47H81.1378ZM101.592 47L91.9616 32.7457L98.0128 26.3324L112.224 47H101.592ZM116.06 47V14.2727H125.136V47H116.06ZM120.619 10.054C119.27 10.054 118.112 9.60653 117.146 8.71165C116.195 7.80256 115.719 6.71591 115.719 5.4517C115.719 4.2017 116.195 3.12926 117.146 2.23438C118.112 1.32528 119.27 0.870736 120.619 0.870736C121.969 0.870736 123.119 1.32528 124.071 2.23438C125.037 3.12926 125.52 4.2017 125.52 5.4517C125.52 6.71591 125.037 7.80256 124.071 8.71165C123.119 9.60653 121.969 10.054 120.619 10.054ZM132.578 47V3.36364H149.794C153.103 3.36364 155.923 3.99574 158.252 5.25994C160.582 6.50994 162.358 8.25 163.579 10.4801C164.815 12.696 165.433 15.2528 165.433 18.1506C165.433 21.0483 164.808 23.6051 163.558 25.821C162.308 28.0369 160.497 29.7628 158.125 30.9986C155.767 32.2344 152.912 32.8523 149.559 32.8523H138.586V25.4588H148.068C149.843 25.4588 151.306 25.1534 152.457 24.5426C153.622 23.9176 154.488 23.0582 155.056 21.9645C155.639 20.8565 155.93 19.5852 155.93 18.1506C155.93 16.7017 155.639 15.4375 155.056 14.358C154.488 13.2642 153.622 12.419 152.457 11.8224C151.292 11.2116 149.815 10.9062 148.025 10.9062H141.804V47H132.578ZM179.708 47.6179C177.62 47.6179 175.76 47.2557 174.126 46.5312C172.493 45.7926 171.2 44.706 170.248 43.2713C169.311 41.8224 168.842 40.0185 168.842 37.8594C168.842 36.0412 169.176 34.5142 169.843 33.2784C170.511 32.0426 171.42 31.0483 172.571 30.2955C173.721 29.5426 175.028 28.9744 176.491 28.5909C177.968 28.2074 179.517 27.9375 181.136 27.7812C183.039 27.5824 184.574 27.3977 185.738 27.2273C186.903 27.0426 187.748 26.7727 188.274 26.4176C188.799 26.0625 189.062 25.5369 189.062 24.8409V24.7131C189.062 23.3636 188.636 22.3196 187.784 21.581C186.946 20.8423 185.752 20.473 184.204 20.473C182.571 20.473 181.271 20.8352 180.305 21.5597C179.339 22.2699 178.7 23.1648 178.387 24.2443L169.993 23.5625C170.419 21.5739 171.257 19.8551 172.507 18.4062C173.757 16.9432 175.369 15.821 177.343 15.0398C179.332 14.2443 181.633 13.8466 184.247 13.8466C186.065 13.8466 187.805 14.0597 189.467 14.4858C191.143 14.9119 192.627 15.5724 193.92 16.4673C195.227 17.3622 196.257 18.5128 197.01 19.919C197.762 21.3111 198.139 22.9801 198.139 24.9261V47H189.531V42.4616H189.275C188.75 43.4844 188.047 44.3864 187.166 45.1676C186.285 45.9347 185.227 46.5384 183.991 46.9787C182.755 47.4048 181.328 47.6179 179.708 47.6179ZM182.308 41.3537C183.643 41.3537 184.822 41.0909 185.845 40.5653C186.868 40.0256 187.67 39.3011 188.252 38.392C188.835 37.483 189.126 36.4531 189.126 35.3026V31.8295C188.842 32.0142 188.451 32.1847 187.954 32.3409C187.471 32.483 186.924 32.6179 186.314 32.7457C185.703 32.8594 185.092 32.9659 184.481 33.0653C183.87 33.1506 183.316 33.2287 182.819 33.2997C181.754 33.456 180.824 33.7045 180.028 34.0455C179.233 34.3864 178.615 34.848 178.174 35.4304C177.734 35.9986 177.514 36.7088 177.514 37.5611C177.514 38.7969 177.961 39.7415 178.856 40.3949C179.765 41.0341 180.916 41.3537 182.308 41.3537ZM219.925 59.9545C216.985 59.9545 214.463 59.5497 212.361 58.7401C210.273 57.9446 208.611 56.858 207.375 55.4801C206.14 54.1023 205.337 52.554 204.968 50.8352L213.363 49.706C213.618 50.3594 214.023 50.9702 214.577 51.5384C215.131 52.1065 215.863 52.5611 216.772 52.902C217.695 53.2571 218.817 53.4347 220.138 53.4347C222.113 53.4347 223.739 52.9517 225.017 51.9858C226.31 51.0341 226.956 49.4361 226.956 47.1918V41.2045H226.573C226.175 42.1136 225.578 42.973 224.783 43.7827C223.988 44.5923 222.965 45.2528 221.715 45.7642C220.465 46.2756 218.973 46.5312 217.24 46.5312C214.783 46.5312 212.546 45.9631 210.529 44.8267C208.526 43.6761 206.928 41.9219 205.735 39.5639C204.556 37.1918 203.966 34.1946 203.966 30.5724C203.966 26.8651 204.57 23.7685 205.777 21.2827C206.985 18.7969 208.59 16.9361 210.593 15.7003C212.61 14.4645 214.819 13.8466 217.219 13.8466C219.051 13.8466 220.586 14.1591 221.821 14.7841C223.057 15.3949 224.051 16.1619 224.804 17.0852C225.571 17.9943 226.161 18.8892 226.573 19.7699H226.914V14.2727H235.926V47.3196C235.926 50.1037 235.245 52.4332 233.881 54.3082C232.517 56.1832 230.628 57.5895 228.213 58.527C225.813 59.4787 223.05 59.9545 219.925 59.9545ZM220.117 39.7131C221.58 39.7131 222.816 39.3509 223.824 38.6264C224.847 37.8878 225.628 36.8366 226.168 35.473C226.722 34.0952 226.999 32.4474 226.999 30.5298C226.999 28.6122 226.729 26.9503 226.189 25.544C225.65 24.1236 224.868 23.0227 223.846 22.2415C222.823 21.4602 221.58 21.0696 220.117 21.0696C218.625 21.0696 217.368 21.4744 216.346 22.2841C215.323 23.0795 214.549 24.1875 214.023 25.608C213.498 27.0284 213.235 28.669 213.235 30.5298C213.235 32.419 213.498 34.0526 214.023 35.4304C214.563 36.794 215.337 37.8523 216.346 38.6051C217.368 39.3437 218.625 39.7131 220.117 39.7131ZM258.064 47.6392C254.698 47.6392 251.8 46.9574 249.371 45.5938C246.956 44.2159 245.096 42.2699 243.789 39.7557C242.482 37.2273 241.828 34.2372 241.828 30.7855C241.828 27.419 242.482 24.4645 243.789 21.9219C245.096 19.3793 246.935 17.3977 249.307 15.9773C251.694 14.5568 254.492 13.8466 257.702 13.8466C259.861 13.8466 261.871 14.1946 263.732 14.8906C265.607 15.5724 267.24 16.6023 268.632 17.9801C270.039 19.358 271.132 21.0909 271.914 23.179C272.695 25.2528 273.086 27.6818 273.086 30.4659V32.9588H245.451V27.3338H264.542C264.542 26.027 264.257 24.8693 263.689 23.8608C263.121 22.8523 262.333 22.0639 261.324 21.4957C260.33 20.9134 259.172 20.6222 257.851 20.6222C256.473 20.6222 255.252 20.9418 254.186 21.581C253.135 22.206 252.311 23.0511 251.715 24.1165C251.118 25.1676 250.813 26.3395 250.799 27.6321V32.9801C250.799 34.5994 251.097 35.9986 251.694 37.1776C252.304 38.3565 253.164 39.2656 254.272 39.9048C255.38 40.544 256.694 40.8636 258.213 40.8636C259.222 40.8636 260.145 40.7216 260.983 40.4375C261.821 40.1534 262.539 39.7273 263.135 39.1591C263.732 38.5909 264.186 37.8949 264.499 37.071L272.894 37.625C272.468 39.642 271.594 41.4034 270.273 42.9091C268.966 44.4006 267.276 45.5653 265.202 46.4034C263.142 47.2273 260.763 47.6392 258.064 47.6392Z" fill="black"/>
<path d="M12.6151 47L11.6536 47.2751L11.8611 48H12.6151V47ZM0.129261 3.36364V2.36364H-1.197L-0.832156 3.63873L0.129261 3.36364ZM10.2074 3.36364L11.1802 3.13189L10.9971 2.36364H10.2074V3.36364ZM17.4304 33.6832L16.4576 33.915L16.6406 34.6832H17.4304V33.6832ZM17.7926 33.6832V34.6832H18.5638L18.7598 33.9374L17.7926 33.6832ZM25.7614 3.36364V2.36364H24.9902L24.7942 3.10944L25.7614 3.36364ZM34.3906 3.36364L35.3581 3.11058L35.1627 2.36364H34.3906V3.36364ZM42.3381 33.7472L41.3706 34.0002L41.566 34.7472H42.3381V33.7472ZM42.7216 33.7472V34.7472H43.5117L43.6945 33.9784L42.7216 33.7472ZM49.9446 3.36364V2.36364H49.1545L48.9717 3.13235L49.9446 3.36364ZM60.0227 3.36364L60.9841 3.63873L61.349 2.36364H60.0227V3.36364ZM47.5369 47V48H48.2909L48.4984 47.2751L47.5369 47ZM38.5455 47L37.5854 47.2796L37.7952 48H38.5455V47ZM30.2358 18.4702L31.1959 18.1905L30.9861 17.4702H30.2358V18.4702ZM29.8949 18.4702V17.4702H29.1441L28.9346 18.1912L29.8949 18.4702ZM21.6065 47V48H22.3574L22.5668 47.279L21.6065 47ZM13.5765 46.7249L1.09068 3.08854L-0.832156 3.63873L11.6536 47.2751L13.5765 46.7249ZM0.129261 4.36364H10.2074V2.36364H0.129261V4.36364ZM9.23461 3.59538L16.4576 33.915L18.4032 33.4515L11.1802 3.13189L9.23461 3.59538ZM17.4304 34.6832H17.7926V32.6832H17.4304V34.6832ZM18.7598 33.9374L26.7285 3.61783L24.7942 3.10944L16.8255 33.429L18.7598 33.9374ZM25.7614 4.36364H34.3906V2.36364H25.7614V4.36364ZM33.4232 3.61669L41.3706 34.0002L43.3055 33.4941L35.3581 3.11058L33.4232 3.61669ZM42.3381 34.7472H42.7216V32.7472H42.3381V34.7472ZM43.6945 33.9784L50.9175 3.59492L48.9717 3.13235L41.7487 33.5159L43.6945 33.9784ZM49.9446 4.36364H60.0227V2.36364H49.9446V4.36364ZM59.0613 3.08854L46.5755 46.7249L48.4984 47.2751L60.9841 3.63873L59.0613 3.08854ZM47.5369 46H38.5455V48H47.5369V46ZM39.5056 46.7204L31.1959 18.1905L29.2757 18.7498L37.5854 47.2796L39.5056 46.7204ZM30.2358 17.4702H29.8949V19.4702H30.2358V17.4702ZM28.9346 18.1912L20.6462 46.721L22.5668 47.279L30.8552 18.7491L28.9346 18.1912ZM21.6065 46H12.6151V48H21.6065V46ZM64.7901 47H63.7901V48H64.7901V47ZM64.7901 14.2727V13.2727H63.7901V14.2727H64.7901ZM73.8668 14.2727H74.8668V13.2727H73.8668V14.2727ZM73.8668 47V48H74.8668V47H73.8668ZM65.8768 8.71165L65.186 9.43476L65.1916 9.44002L65.1972 9.44521L65.8768 8.71165ZM65.8768 2.23438L66.5618 2.96289L66.5621 2.96257L65.8768 2.23438ZM72.8015 2.23438L72.1108 2.95748L72.1163 2.96275L72.1219 2.96794L72.8015 2.23438ZM72.8015 8.71165L73.4865 9.44016L73.4869 9.43985L72.8015 8.71165ZM65.7901 47V14.2727H63.7901V47H65.7901ZM64.7901 15.2727H73.8668V13.2727H64.7901V15.2727ZM72.8668 14.2727V47H74.8668V14.2727H72.8668ZM73.8668 46H64.7901V48H73.8668V46ZM69.3498 9.05398C68.2455 9.05398 67.3324 8.69704 66.5564 7.97808L65.1972 9.44521C66.353 10.516 67.7553 11.054 69.3498 11.054V9.05398ZM66.5675 7.98853C65.8042 7.25942 65.4492 6.43039 65.4492 5.4517H63.4492C63.4492 7.00142 64.0459 8.34569 65.186 9.43476L66.5675 7.98853ZM65.4492 5.4517C65.4492 4.49129 65.8009 3.67837 66.5618 2.96289L65.1918 1.50586C64.0493 2.58015 63.4492 3.91212 63.4492 5.4517H65.4492ZM66.5621 2.96257C67.339 2.2314 68.2502 1.87074 69.3498 1.87074V-0.129264C67.7505 -0.129264 66.3464 0.419161 65.1914 1.50618L66.5621 2.96257ZM69.3498 1.87074C70.4492 1.87074 71.3503 2.23105 72.1108 2.95748L73.4922 1.51127C72.3493 0.419514 70.9493 -0.129264 69.3498 -0.129264V1.87074ZM72.1219 2.96794C72.8958 3.68495 73.2504 4.49647 73.2504 5.4517H75.2504C75.2504 3.90693 74.639 2.57357 73.4811 1.50081L72.1219 2.96794ZM73.2504 5.4517C73.2504 6.42528 72.8924 7.25288 72.1161 7.98344L73.4869 9.43985C74.6424 8.35223 75.2504 7.00653 75.2504 5.4517H73.2504ZM72.1165 7.98313C71.3569 8.69736 70.4539 9.05398 69.3498 9.05398V11.054C70.9445 11.054 72.3427 10.5157 73.4865 9.44016L72.1165 7.98313ZM89.3622 37.5824L88.3622 37.5804L88.357 40.248L90.1145 38.2412L89.3622 37.5824ZM89.3835 26.6946V25.6946H88.3855L88.3835 26.6926L89.3835 26.6946ZM90.7045 26.6946V27.6946H91.1691L91.4688 27.3395L90.7045 26.6946ZM101.188 14.2727V13.2727H100.723L100.423 13.6278L101.188 14.2727ZM111.607 14.2727L112.366 14.9231L113.779 13.2727H111.607V14.2727ZM97.5227 30.7216V31.7216H97.983L98.2823 31.372L97.5227 30.7216ZM95.3707 30.7216V29.7216H94.9172L94.6185 30.0628L95.3707 30.7216ZM81.1378 47H80.1378V48H81.1378V47ZM81.1378 3.36364V2.36364H80.1378V3.36364H81.1378ZM90.2145 3.36364H91.2145V2.36364H90.2145V3.36364ZM90.2145 47V48H91.2145V47H90.2145ZM101.592 47L100.764 47.5598L101.061 48H101.592V47ZM91.9616 32.7457L91.2343 32.0595L90.6847 32.642L91.133 33.3056L91.9616 32.7457ZM98.0128 26.3324L98.8368 25.7658L98.1352 24.7455L97.2854 25.6461L98.0128 26.3324ZM112.224 47V48H114.126L113.048 46.4334L112.224 47ZM90.3622 37.5843L90.3835 26.6966L88.3835 26.6926L88.3622 37.5804L90.3622 37.5843ZM89.3835 27.6946H90.7045V25.6946H89.3835V27.6946ZM91.4688 27.3395L101.952 14.9177L100.423 13.6278L89.9403 26.0497L91.4688 27.3395ZM101.188 15.2727H111.607V13.2727H101.188V15.2727ZM110.847 13.6223L96.7631 30.0712L98.2823 31.372L112.366 14.9231L110.847 13.6223ZM97.5227 29.7216H95.3707V31.7216H97.5227V29.7216ZM94.6185 30.0628L88.6099 36.9236L90.1145 38.2412L96.123 31.3804L94.6185 30.0628ZM82.1378 47V3.36364H80.1378V47H82.1378ZM81.1378 4.36364H90.2145V2.36364H81.1378V4.36364ZM89.2145 3.36364V47H91.2145V3.36364H89.2145ZM90.2145 46H81.1378V48H90.2145V46ZM102.421 46.4402L92.7903 32.1859L91.133 33.3056L100.764 47.5598L102.421 46.4402ZM92.689 33.432L98.7401 27.0187L97.2854 25.6461L91.2343 32.0595L92.689 33.432ZM97.1888 26.899L111.4 47.5666L113.048 46.4334L98.8368 25.7658L97.1888 26.899ZM112.224 46H101.592V48H112.224V46ZM116.06 47H115.06V48H116.06V47ZM116.06 14.2727V13.2727H115.06V14.2727H116.06ZM125.136 14.2727H126.136V13.2727H125.136V14.2727ZM125.136 47V48H126.136V47H125.136ZM117.146 8.71165L116.456 9.43476L116.461 9.44002L116.467 9.44521L117.146 8.71165ZM117.146 2.23438L117.831 2.96289L117.832 2.96257L117.146 2.23438ZM124.071 2.23438L123.38 2.95748L123.386 2.96275L123.391 2.96794L124.071 2.23438ZM124.071 8.71165L124.756 9.44016L124.756 9.43985L124.071 8.71165ZM117.06 47V14.2727H115.06V47H117.06ZM116.06 15.2727H125.136V13.2727H116.06V15.2727ZM124.136 14.2727V47H126.136V14.2727H124.136ZM125.136 46H116.06V48H125.136V46ZM120.619 9.05398C119.515 9.05398 118.602 8.69704 117.826 7.97808L116.467 9.44521C117.622 10.516 119.025 11.054 120.619 11.054V9.05398ZM117.837 7.98853C117.074 7.25942 116.719 6.43039 116.719 5.4517H114.719C114.719 7.00142 115.315 8.34569 116.456 9.43476L117.837 7.98853ZM116.719 5.4517C116.719 4.49129 117.07 3.67837 117.831 2.96289L116.461 1.50586C115.319 2.58015 114.719 3.91212 114.719 5.4517H116.719ZM117.832 2.96257C118.609 2.2314 119.52 1.87074 120.619 1.87074V-0.129264C119.02 -0.129264 117.616 0.419161 116.461 1.50618L117.832 2.96257ZM120.619 1.87074C121.719 1.87074 122.62 2.23105 123.38 2.95748L124.762 1.51127C123.619 0.419514 122.219 -0.129264 120.619 -0.129264V1.87074ZM123.391 2.96794C124.165 3.68495 124.52 4.49647 124.52 5.4517H126.52C126.52 3.90693 125.909 2.57357 124.751 1.50081L123.391 2.96794ZM124.52 5.4517C124.52 6.42528 124.162 7.25288 123.386 7.98344L124.756 9.43985C125.912 8.35223 126.52 7.00653 126.52 5.4517H124.52ZM123.386 7.98313C122.626 8.69736 121.723 9.05398 120.619 9.05398V11.054C122.214 11.054 123.612 10.5157 124.756 9.44016L123.386 7.98313ZM132.578 47H131.578V48H132.578V47ZM132.578 3.36364V2.36364H131.578V3.36364H132.578ZM158.252 5.25994L157.776 6.13887L157.78 6.1411L158.252 5.25994ZM163.579 10.4801L162.702 10.9605L162.706 10.9672L163.579 10.4801ZM158.125 30.9986L157.663 30.1117L157.66 30.1129L158.125 30.9986ZM138.586 32.8523H137.586V33.8523H138.586V32.8523ZM138.586 25.4588V24.4588H137.586V25.4588H138.586ZM152.457 24.5426L152.926 25.4259L152.93 25.4238L152.457 24.5426ZM155.056 21.9645L154.171 21.4992L154.169 21.5035L155.056 21.9645ZM155.056 14.358L154.169 14.8189L154.173 14.8259L154.176 14.8327L155.056 14.358ZM152.457 11.8224L151.993 12.7081L152.001 12.7125L152.457 11.8224ZM141.804 10.9062V9.90625H140.804V10.9062H141.804ZM141.804 47V48H142.804V47H141.804ZM133.578 47V3.36364H131.578V47H133.578ZM132.578 4.36364H149.794V2.36364H132.578V4.36364ZM149.794 4.36364C152.977 4.36364 155.624 4.97151 157.776 6.13886L158.729 4.38102C156.221 3.01996 153.229 2.36364 149.794 2.36364V4.36364ZM157.78 6.1411C159.946 7.30334 161.577 8.90731 162.702 10.9605L164.456 9.99969C163.138 7.59268 161.218 5.71655 158.725 4.37878L157.78 6.1411ZM162.706 10.9672C163.847 13.0141 164.433 15.3988 164.433 18.1506H166.433C166.433 15.1069 165.783 12.3779 164.453 9.99304L162.706 10.9672ZM164.433 18.1506C164.433 20.9004 163.841 23.2835 162.687 25.3297L164.429 26.3123C165.775 23.9267 166.433 21.1962 166.433 18.1506H164.433ZM162.687 25.3297C161.537 27.3681 159.872 28.9606 157.663 30.1117L158.587 31.8854C161.121 30.565 163.079 28.7058 164.429 26.3123L162.687 25.3297ZM157.66 30.1129C155.478 31.2566 152.791 31.8523 149.559 31.8523V33.8523C153.032 33.8523 156.055 33.2121 158.589 31.8843L157.66 30.1129ZM149.559 31.8523H138.586V33.8523H149.559V31.8523ZM139.586 32.8523V25.4588H137.586V32.8523H139.586ZM138.586 26.4588H148.068V24.4588H138.586V26.4588ZM148.068 26.4588C149.95 26.4588 151.588 26.1361 152.926 25.4259L151.988 23.6594C151.025 24.1708 149.736 24.4588 148.068 24.4588V26.4588ZM152.93 25.4238C154.258 24.7109 155.276 23.711 155.944 22.4255L154.169 21.5035C153.7 22.4055 152.985 23.1244 151.984 23.6615L152.93 25.4238ZM155.942 22.4298C156.61 21.1586 156.93 19.7235 156.93 18.1506H154.93C154.93 19.447 154.668 20.5545 154.171 21.4992L155.942 22.4298ZM156.93 18.1506C156.93 16.566 156.611 15.1329 155.937 13.8832L154.176 14.8327C154.667 15.7421 154.93 16.8374 154.93 18.1506H156.93ZM155.944 13.897C155.274 12.6071 154.251 11.6175 152.913 10.9324L152.001 12.7125C152.993 13.2206 153.703 13.9213 154.169 14.8189L155.944 13.897ZM152.921 10.9368C151.571 10.2287 149.921 9.90625 148.025 9.90625V11.9062C149.709 11.9062 151.013 12.1946 151.993 12.7081L152.921 10.9368ZM148.025 9.90625H141.804V11.9062H148.025V9.90625ZM140.804 10.9062V47H142.804V10.9062H140.804ZM141.804 46H132.578V48H141.804V46ZM174.126 46.5312L173.714 47.4425L173.721 47.4454L174.126 46.5312ZM170.248 43.2713L169.409 43.8146L169.415 43.8241L170.248 43.2713ZM169.843 33.2784L168.964 32.8031L168.964 32.8031L169.843 33.2784ZM172.571 30.2955L172.023 29.4587L172.023 29.4587L172.571 30.2955ZM176.491 28.5909L176.24 27.623L176.238 27.6236L176.491 28.5909ZM181.136 27.7812L181.232 28.7767L181.24 28.7758L181.136 27.7812ZM185.738 27.2273L185.883 28.2168L185.895 28.2149L185.738 27.2273ZM188.274 26.4176L187.714 25.589L187.714 25.589L188.274 26.4176ZM187.784 21.581L187.123 22.3312L187.129 22.3367L187.784 21.581ZM180.305 21.5597L180.897 22.3653L180.905 22.3597L180.305 21.5597ZM178.387 24.2443L178.306 25.241L179.121 25.3072L179.348 24.5224L178.387 24.2443ZM169.993 23.5625L169.015 23.353L168.776 24.467L169.912 24.5592L169.993 23.5625ZM172.507 18.4062L173.264 19.0595L173.267 19.0558L172.507 18.4062ZM177.343 15.0398L177.711 15.9696L177.715 15.9682L177.343 15.0398ZM189.467 14.4858L189.219 15.4545L189.221 15.455L189.467 14.4858ZM193.92 16.4673L193.351 17.2895L193.355 17.2924L193.92 16.4673ZM197.01 19.919L196.128 20.391L196.13 20.3947L197.01 19.919ZM198.139 47V48H199.139V47H198.139ZM189.531 47H188.531V48H189.531V47ZM189.531 42.4616H190.531V41.4616H189.531V42.4616ZM189.275 42.4616V41.4616H188.665L188.386 42.0046L189.275 42.4616ZM187.166 45.1676L187.823 45.9217L187.829 45.9157L187.166 45.1676ZM183.991 46.9787L184.317 47.9241L184.327 47.9207L183.991 46.9787ZM185.845 40.5653L186.302 41.4548L186.312 41.4497L185.845 40.5653ZM188.252 38.392L187.41 37.8526L187.41 37.8526L188.252 38.392ZM189.126 31.8295H190.126V29.9869L188.581 30.9911L189.126 31.8295ZM187.954 32.3409L188.236 33.3003L188.245 33.2977L188.254 33.2949L187.954 32.3409ZM186.314 32.7457L186.496 33.7289L186.507 33.7268L186.518 33.7245L186.314 32.7457ZM184.481 33.0653L184.619 34.0557L184.631 34.0542L184.642 34.0523L184.481 33.0653ZM182.819 33.2997L182.678 32.3098L182.674 32.3103L182.819 33.2997ZM180.028 34.0455L180.422 34.9646L180.422 34.9646L180.028 34.0455ZM178.174 35.4304L178.965 36.043L178.972 36.0335L178.174 35.4304ZM178.856 40.3949L178.266 41.2025L178.274 41.2078L178.281 41.2129L178.856 40.3949ZM179.708 46.6179C177.737 46.6179 176.018 46.2762 174.531 45.6171L173.721 47.4454C175.502 48.2352 177.504 48.6179 179.708 48.6179V46.6179ZM174.538 45.6201C173.068 44.9555 171.925 43.9898 171.082 42.7185L169.415 43.8241C170.475 45.4221 171.917 46.6297 173.714 47.4424L174.538 45.6201ZM171.088 42.7281C170.278 41.4773 169.842 39.874 169.842 37.8594H167.842C167.842 40.1629 168.343 42.1676 169.409 43.8146L171.088 42.7281ZM169.842 37.8594C169.842 36.1597 170.154 34.8068 170.723 33.7537L168.964 32.8031C168.197 34.2216 167.842 35.9227 167.842 37.8594H169.842ZM170.723 33.7537C171.314 32.6609 172.11 31.7921 173.118 31.1322L172.023 29.4587C170.73 30.3045 169.708 31.4244 168.964 32.8031L170.723 33.7537ZM173.118 31.1322C174.17 30.4441 175.376 29.9171 176.745 29.5582L176.238 27.6236C174.68 28.0318 173.273 28.6411 172.023 29.4587L173.118 31.1322ZM176.742 29.5588C178.166 29.1894 179.662 28.9282 181.232 28.7766L181.04 26.7859C179.372 26.9468 177.771 27.2254 176.24 27.623L176.742 29.5588ZM181.24 28.7758C183.15 28.5763 184.699 28.39 185.883 28.2167L185.593 26.2378C184.448 26.4054 182.929 26.5885 181.032 26.7867L181.24 28.7758ZM185.895 28.2149C187.101 28.0238 188.123 27.7265 188.834 27.2462L187.714 25.589C187.374 25.819 186.705 26.0615 185.582 26.2396L185.895 28.2149ZM188.834 27.2462C189.665 26.6848 190.062 25.831 190.062 24.8409H188.062C188.062 25.2428 187.934 25.4402 187.714 25.589L188.834 27.2462ZM190.062 24.8409V24.7131H188.062V24.8409H190.062ZM190.062 24.7131C190.062 23.1361 189.553 21.7913 188.439 20.8253L187.129 22.3367C187.719 22.8479 188.062 23.5911 188.062 24.7131H190.062ZM188.445 20.8308C187.364 19.8783 185.902 19.473 184.204 19.473V21.473C185.603 21.473 186.527 21.8064 187.123 22.3312L188.445 20.8308ZM184.204 19.473C182.43 19.473 180.896 19.8664 179.705 20.7597L180.905 22.3597C181.646 21.804 182.712 21.473 184.204 21.473V19.473ZM179.713 20.754C178.582 21.5854 177.805 22.6605 177.427 23.9663L179.348 24.5224C179.595 23.6691 180.096 22.9543 180.897 22.3653L179.713 20.754ZM178.468 23.2476L170.073 22.5658L169.912 24.5592L178.306 25.241L178.468 23.2476ZM170.97 23.772C171.364 21.9368 172.13 20.3733 173.264 19.0595L171.75 17.753C170.383 19.3369 169.474 21.2109 169.015 23.353L170.97 23.772ZM173.267 19.0558C174.4 17.7292 175.873 16.6972 177.711 15.9696L176.975 14.1099C174.865 14.9449 173.113 16.1571 171.746 17.7567L173.267 19.0558ZM177.715 15.9682C179.562 15.2292 181.733 14.8466 184.247 14.8466V12.8466C181.533 12.8466 179.102 13.2594 176.972 14.1113L177.715 15.9682ZM184.247 14.8466C185.986 14.8466 187.643 15.0503 189.219 15.4545L189.715 13.5171C187.968 13.069 186.144 12.8466 184.247 12.8466V14.8466ZM189.221 15.455C190.793 15.8547 192.166 16.4689 193.351 17.2895L194.489 15.6451C193.089 14.676 191.493 13.9692 189.713 13.5166L189.221 15.455ZM193.355 17.2924C194.529 18.096 195.45 19.1251 196.128 20.391L197.891 19.4471C197.063 17.9005 195.925 16.6284 194.485 15.6422L193.355 17.2924ZM196.13 20.3947C196.788 21.6108 197.139 23.1085 197.139 24.9261H199.139C199.139 22.8517 198.737 21.0114 197.889 19.4433L196.13 20.3947ZM197.139 24.9261V47H199.139V24.9261H197.139ZM198.139 46H189.531V48H198.139V46ZM190.531 47V42.4616H188.531V47H190.531ZM189.531 41.4616H189.275V43.4616H189.531V41.4616ZM188.386 42.0046C187.918 42.9145 187.293 43.7185 186.502 44.4195L187.829 45.9157C188.801 45.0543 189.581 44.0542 190.165 42.9187L188.386 42.0046ZM186.509 44.4135C185.734 45.0889 184.788 45.6332 183.655 46.0367L184.327 47.9207C185.666 47.4435 186.837 46.7804 187.823 45.9217L186.509 44.4135ZM183.665 46.0333C182.556 46.4158 181.242 46.6179 179.708 46.6179V48.6179C181.413 48.6179 182.955 48.3938 184.317 47.9241L183.665 46.0333ZM182.308 42.3537C183.776 42.3537 185.117 42.0639 186.302 41.4548L185.388 39.6759C184.528 40.1179 183.51 40.3537 182.308 40.3537V42.3537ZM186.312 41.4497C187.476 40.8352 188.412 39.9964 189.095 38.9315L187.41 37.8526C186.928 38.6059 186.259 39.2159 185.378 39.681L186.312 41.4497ZM189.095 38.9315C189.787 37.8507 190.126 36.6312 190.126 35.3026H188.126C188.126 36.2751 187.883 37.1153 187.41 37.8526L189.095 38.9315ZM190.126 35.3026V31.8295H188.126V35.3026H190.126ZM188.581 30.9911C188.402 31.1073 188.106 31.2449 187.654 31.3869L188.254 33.2949C188.797 33.1244 189.282 32.9211 189.671 32.668L188.581 30.9911ZM187.672 31.3815C187.22 31.5146 186.699 31.6433 186.109 31.7669L186.518 33.7245C187.149 33.5925 187.723 33.4513 188.236 33.3003L187.672 31.3815ZM186.131 31.7626C185.527 31.8749 184.924 31.9801 184.321 32.0783L184.642 34.0523C185.26 33.9517 185.878 33.8439 186.496 33.7289L186.131 31.7626ZM184.343 32.0749C183.731 32.1603 183.176 32.2386 182.678 32.3098L182.961 34.2897C183.457 34.2188 184.009 34.1409 184.619 34.0557L184.343 32.0749ZM182.674 32.3103C181.543 32.4762 180.526 32.7442 179.634 33.1263L180.422 34.9646C181.121 34.6649 181.965 34.4357 182.964 34.2891L182.674 32.3103ZM179.634 33.1263C178.709 33.5229 177.94 34.0826 177.377 34.8273L178.972 36.0335C179.29 35.6135 179.757 35.2498 180.422 34.9646L179.634 33.1263ZM177.384 34.8178C176.784 35.5923 176.514 36.5297 176.514 37.5611H178.514C178.514 36.8879 178.684 36.4049 178.965 36.043L177.384 34.8178ZM176.514 37.5611C176.514 39.0736 177.081 40.3371 178.266 41.2025L179.446 39.5873C178.841 39.1459 178.514 38.5201 178.514 37.5611H176.514ZM178.281 41.2129C179.397 41.9975 180.762 42.3537 182.308 42.3537V40.3537C181.069 40.3537 180.134 40.0707 179.431 39.5769L178.281 41.2129ZM212.361 58.7401L212.721 57.8069L212.717 57.8056L212.361 58.7401ZM207.375 55.4801L206.631 56.1478L206.631 56.1478L207.375 55.4801ZM204.968 50.8352L204.834 49.8442L203.763 49.9883L203.99 51.0453L204.968 50.8352ZM213.363 49.706L214.294 49.3416L214.008 48.6102L213.229 48.7149L213.363 49.706ZM214.577 51.5384L215.293 50.8403L215.293 50.8403L214.577 51.5384ZM216.772 52.902L217.131 51.9686L217.123 51.9657L216.772 52.902ZM225.017 51.9858L224.424 51.1805L224.415 51.1879L225.017 51.9858ZM226.956 41.2045H227.956V40.2045H226.956V41.2045ZM226.573 41.2045V40.2045H225.919L225.657 40.8037L226.573 41.2045ZM224.783 43.7827L225.496 44.4835L225.496 44.4835L224.783 43.7827ZM210.529 44.8267L210.031 45.6938L210.038 45.698L210.529 44.8267ZM205.735 39.5639L204.839 40.009L204.842 40.0154L205.735 39.5639ZM205.777 21.2827L204.878 20.8458L204.878 20.8458L205.777 21.2827ZM210.593 15.7003L210.07 14.8476L210.068 14.8492L210.593 15.7003ZM221.821 14.7841L221.37 15.6765L221.378 15.6806L221.821 14.7841ZM224.804 17.0852L224.029 17.7172L224.035 17.7237L224.04 17.7301L224.804 17.0852ZM226.573 19.7699L225.667 20.1936L225.937 20.7699H226.573V19.7699ZM226.914 19.7699V20.7699H227.914V19.7699H226.914ZM226.914 14.2727V13.2727H225.914V14.2727H226.914ZM235.926 14.2727H236.926V13.2727H235.926V14.2727ZM233.881 54.3082L233.072 53.7201L233.072 53.7201L233.881 54.3082ZM228.213 58.527L227.851 57.5948L227.845 57.5974L228.213 58.527ZM223.824 38.6264L224.408 39.4386L224.41 39.4371L223.824 38.6264ZM226.168 35.473L225.24 35.1L225.238 35.105L226.168 35.473ZM226.189 25.544L225.254 25.8993L225.256 25.9024L226.189 25.544ZM216.346 22.2841L216.959 23.0735L216.966 23.0681L216.346 22.2841ZM214.023 25.608L214.961 25.955L214.961 25.955L214.023 25.608ZM214.023 35.4304L213.089 35.7868L213.093 35.7984L214.023 35.4304ZM216.346 38.6051L215.747 39.4065L215.754 39.4112L215.76 39.4158L216.346 38.6051ZM219.925 58.9545C217.072 58.9545 214.679 58.5612 212.721 57.8069L212.002 59.6732C214.248 60.5383 216.897 60.9545 219.925 60.9545V58.9545ZM212.717 57.8056C210.747 57.0552 209.229 56.0495 208.12 54.8124L206.631 56.1478C207.993 57.6664 209.799 58.834 212.005 59.6745L212.717 57.8056ZM208.12 54.8124C206.994 53.5571 206.276 52.1645 205.945 50.6251L203.99 51.0453C204.398 52.9434 205.285 54.6474 206.631 56.1478L208.12 54.8124ZM205.101 51.8263L213.496 50.697L213.229 48.7149L204.834 49.8442L205.101 51.8263ZM212.431 50.0704C212.742 50.8636 213.226 51.585 213.861 52.2365L215.293 50.8403C214.82 50.3553 214.495 49.8552 214.294 49.3416L212.431 50.0704ZM213.861 52.2365C214.538 52.9307 215.404 53.4571 216.421 53.8383L217.123 51.9657C216.321 51.6651 215.724 51.2823 215.293 50.8403L213.861 52.2365ZM216.413 53.8353C217.482 54.2466 218.733 54.4347 220.138 54.4347V52.4347C218.901 52.4347 217.908 52.2677 217.131 51.9686L216.413 53.8353ZM220.138 54.4347C222.279 54.4347 224.131 53.9088 225.62 52.7837L224.415 51.1879C223.347 51.9946 221.947 52.4347 220.138 52.4347V54.4347ZM225.61 52.7911C227.251 51.583 227.956 49.6186 227.956 47.1918H225.956C225.956 49.2535 225.369 50.4852 224.425 51.1805L225.61 52.7911ZM227.956 47.1918V41.2045H225.956V47.1918H227.956ZM226.956 40.2045H226.573V42.2045H226.956V40.2045ZM225.657 40.8037C225.314 41.5865 224.792 42.3467 224.07 43.0818L225.496 44.4835C226.365 43.5994 227.036 42.6408 227.489 41.6054L225.657 40.8037ZM224.07 43.0818C223.386 43.7781 222.484 44.3691 221.336 44.8387L222.093 46.6898C223.446 46.1366 224.589 45.4066 225.496 44.4835L224.07 43.0818ZM221.336 44.8387C220.235 45.2891 218.879 45.5312 217.24 45.5312V47.5312C219.068 47.5312 220.695 47.262 222.093 46.6898L221.336 44.8387ZM217.24 45.5312C214.944 45.5312 212.878 45.0022 211.02 43.9555L210.038 45.698C212.214 46.9239 214.622 47.5312 217.24 47.5312V45.5312ZM211.027 43.9596C209.217 42.9196 207.745 41.3221 206.627 39.1124L204.842 40.0154C206.111 42.5216 207.835 44.4326 210.031 45.6938L211.027 43.9596ZM206.63 39.1189C205.54 36.9262 204.966 34.0939 204.966 30.5724H202.966C202.966 34.2953 203.571 37.4573 204.839 40.009L206.63 39.1189ZM204.966 30.5724C204.966 26.9672 205.554 24.031 206.677 21.7196L204.878 20.8458C203.586 23.506 202.966 26.7629 202.966 30.5724H204.966ZM206.677 21.7196C207.816 19.3743 209.303 17.6711 211.118 16.5513L210.068 14.8492C207.877 16.201 206.153 18.2194 204.878 20.8458L206.677 21.7196ZM211.115 16.553C212.972 15.415 215 14.8466 217.219 14.8466V12.8466C214.637 12.8466 212.247 13.514 210.07 14.8476L211.115 16.553ZM217.219 14.8466C218.943 14.8466 220.312 15.1413 221.37 15.6765L222.273 13.8917C220.859 13.1769 219.16 12.8466 217.219 12.8466V14.8466ZM221.378 15.6806C222.506 16.2379 223.38 16.9209 224.029 17.7172L225.579 16.4533C224.723 15.403 223.609 14.5519 222.264 13.8876L221.378 15.6806ZM224.04 17.7301C224.763 18.5864 225.3 19.4079 225.667 20.1936L227.479 19.3462C227.022 18.3705 226.38 17.4023 225.569 16.4404L224.04 17.7301ZM226.573 20.7699H226.914V18.7699H226.573V20.7699ZM227.914 19.7699V14.2727H225.914V19.7699H227.914ZM226.914 15.2727H235.926V13.2727H226.914V15.2727ZM234.926 14.2727V47.3196H236.926V14.2727H234.926ZM234.926 47.3196C234.926 49.9358 234.288 52.0481 233.072 53.7201L234.69 54.8964C236.201 52.8184 236.926 50.2715 236.926 47.3196H234.926ZM233.072 53.7201C231.834 55.4221 230.109 56.7183 227.852 57.5948L228.575 59.4592C231.147 58.4607 233.2 56.9444 234.69 54.8964L233.072 53.7201ZM227.845 57.5974C225.583 58.4939 222.95 58.9545 219.925 58.9545V60.9545C223.15 60.9545 226.042 60.4635 228.582 59.4566L227.845 57.5974ZM220.117 40.7131C221.751 40.7131 223.2 40.3058 224.408 39.4386L223.241 37.8142C222.431 38.3959 221.409 38.7131 220.117 38.7131V40.7131ZM224.41 39.4371C225.611 38.5696 226.499 37.3527 227.098 35.8411L225.238 35.105C224.757 36.3206 224.083 37.206 223.239 37.8157L224.41 39.4371ZM227.096 35.8461C227.709 34.3206 227.999 32.5397 227.999 30.5298H225.999C225.999 32.3551 225.735 33.8697 225.24 35.1L227.096 35.8461ZM227.999 30.5298C227.999 28.5217 227.717 26.7328 227.123 25.1857L225.256 25.9024C225.741 27.1678 225.999 28.7027 225.999 30.5298H227.999ZM227.124 25.1888C226.53 23.6261 225.648 22.3602 224.453 21.4468L223.238 23.0361C224.088 23.6853 224.769 24.6211 225.254 25.8993L227.124 25.1888ZM224.453 21.4468C223.232 20.5145 221.768 20.0696 220.117 20.0696V22.0696C221.392 22.0696 222.414 22.406 223.238 23.0361L224.453 21.4468ZM220.117 20.0696C218.434 20.0696 216.949 20.5308 215.725 21.5L216.966 23.0681C217.787 22.418 218.817 22.0696 220.117 22.0696V20.0696ZM215.732 21.4947C214.538 22.4227 213.664 23.6957 213.085 25.2609L214.961 25.955C215.433 24.6793 216.107 23.7363 216.959 23.0734L215.732 21.4947ZM213.085 25.2609C212.51 26.8146 212.235 28.5767 212.235 30.5298H214.235C214.235 28.7613 214.485 27.2422 214.961 25.955L213.085 25.2609ZM212.235 30.5298C212.235 32.5082 212.509 34.2682 213.089 35.7868L214.957 35.074C214.486 33.837 214.235 32.3299 214.235 30.5298H212.235ZM213.093 35.7984C213.69 37.3055 214.567 38.5255 215.747 39.4065L216.944 37.8038C216.107 37.1791 215.436 36.2826 214.953 35.0623L213.093 35.7984ZM215.76 39.4158C216.983 40.2987 218.455 40.7131 220.117 40.7131V38.7131C218.796 38.7131 217.754 38.3888 216.931 37.7944L215.76 39.4158ZM249.371 45.5938L248.875 46.4623L248.882 46.4657L249.371 45.5938ZM243.789 39.7557L242.9 40.2148L242.901 40.2169L243.789 39.7557ZM243.789 21.9219L242.899 21.4648L242.899 21.4648L243.789 21.9219ZM249.307 15.9773L248.796 15.118L248.793 15.1193L249.307 15.9773ZM263.732 14.8906L263.382 15.8273L263.39 15.8304L263.732 14.8906ZM268.632 17.9801L267.929 18.6908L267.933 18.6944L268.632 17.9801ZM271.914 23.179L270.977 23.5294L270.978 23.5315L271.914 23.179ZM273.086 32.9588V33.9588H274.086V32.9588H273.086ZM245.451 32.9588H244.451V33.9588H245.451V32.9588ZM245.451 27.3338V26.3338H244.451V27.3338H245.451ZM264.542 27.3338V28.3338H265.542V27.3338H264.542ZM263.689 23.8608L262.818 24.3516L262.818 24.3516L263.689 23.8608ZM261.324 21.4957L260.819 22.3586L260.826 22.3629L260.833 22.367L261.324 21.4957ZM254.186 21.581L254.698 22.4405L254.701 22.4385L254.186 21.581ZM251.715 24.1165L252.585 24.6101L252.587 24.6051L251.715 24.1165ZM250.799 27.6321L249.799 27.6211V27.6321H250.799ZM251.694 37.1776L250.801 37.6291L250.806 37.6376L251.694 37.1776ZM260.983 40.4375L260.662 39.4904L260.662 39.4904L260.983 40.4375ZM263.135 39.1591L262.446 38.435L262.446 38.435L263.135 39.1591ZM264.499 37.071L264.565 36.0732L263.826 36.0245L263.564 36.7164L264.499 37.071ZM272.894 37.625L273.872 37.8317L274.111 36.7031L272.96 36.6272L272.894 37.625ZM270.273 42.9091L269.521 42.2496L269.521 42.2501L270.273 42.9091ZM265.202 46.4034L265.573 47.3319L265.577 47.3306L265.202 46.4034ZM258.064 46.6392C254.834 46.6392 252.112 45.9856 249.861 44.7218L248.882 46.4657C251.488 47.9292 254.562 48.6392 258.064 48.6392V46.6392ZM249.867 44.7252C247.622 43.4446 245.896 41.6415 244.676 39.2945L242.901 40.2169C244.295 42.8982 246.29 44.9872 248.876 46.4623L249.867 44.7252ZM244.677 39.2965C243.458 36.9372 242.828 34.1111 242.828 30.7855H240.828C240.828 34.3634 241.506 37.5174 242.9 40.2148L244.677 39.2965ZM242.828 30.7855C242.828 27.5499 243.456 24.7571 244.678 22.379L242.899 21.4648C241.508 24.1719 240.828 27.2882 240.828 30.7855H242.828ZM244.678 22.379C245.903 19.9965 247.615 18.1564 249.821 16.8352L248.793 15.1193C246.255 16.6391 244.288 18.762 242.899 21.4648L244.678 22.379ZM249.819 16.8366C252.028 15.5218 254.643 14.8466 257.702 14.8466V12.8466C254.34 12.8466 251.36 13.5919 248.796 15.118L249.819 16.8366ZM257.702 14.8466C259.752 14.8466 261.642 15.1766 263.382 15.8272L264.082 13.954C262.1 13.2126 259.97 12.8466 257.702 12.8466V14.8466ZM263.39 15.8304C265.132 16.4638 266.642 17.4165 267.929 18.6908L269.336 17.2694C267.839 15.788 266.082 14.681 264.074 13.9508L263.39 15.8304ZM267.933 18.6944C269.221 19.957 270.24 21.5603 270.977 23.5294L272.85 22.8286C272.025 20.6215 270.856 18.7589 269.332 17.2658L267.933 18.6944ZM270.978 23.5315C271.707 25.4679 272.086 27.7726 272.086 30.4659H274.086C274.086 27.591 273.683 25.0377 272.85 22.8264L270.978 23.5315ZM272.086 30.4659V32.9588H274.086V30.4659H272.086ZM273.086 31.9588H245.451V33.9588H273.086V31.9588ZM246.451 32.9588V27.3338H244.451V32.9588H246.451ZM245.451 28.3338H264.542V26.3338H245.451V28.3338ZM265.542 27.3338C265.542 25.8776 265.224 24.5468 264.561 23.37L262.818 24.3516C263.291 25.1918 263.542 26.1764 263.542 27.3338H265.542ZM264.561 23.37C263.903 22.2023 262.983 21.2823 261.815 20.6245L260.833 22.367C261.683 22.8455 262.34 23.5023 262.818 24.3516L264.561 23.37ZM261.83 20.6329C260.661 19.9482 259.323 19.6222 257.851 19.6222V21.6222C259.021 21.6222 259.999 21.8785 260.819 22.3586L261.83 20.6329ZM257.851 19.6222C256.312 19.6222 254.909 19.9811 253.672 20.7235L254.701 22.4385C255.594 21.9024 256.634 21.6222 257.851 21.6222V19.6222ZM253.675 20.7214C252.474 21.436 251.525 22.409 250.842 23.6279L252.587 24.6051C253.098 23.6932 253.797 22.9759 254.698 22.4405L253.675 20.7214ZM250.845 23.6229C250.159 24.8315 249.815 26.1713 249.799 27.6211L251.799 27.6431C251.811 26.5076 252.077 25.5038 252.585 24.6101L250.845 23.6229ZM249.799 27.6321V32.9801H251.799V27.6321H249.799ZM249.799 32.9801C249.799 34.7215 250.12 36.2821 250.801 37.6291L252.586 36.726C252.074 35.7151 251.799 34.4774 251.799 32.9801H249.799ZM250.806 37.6376C251.501 38.9794 252.492 40.0325 253.772 40.771L254.771 39.0386C253.836 38.4987 253.108 37.7336 252.581 36.7176L250.806 37.6376ZM253.772 40.771C255.058 41.5131 256.551 41.8636 258.213 41.8636V39.8636C256.836 39.8636 255.701 39.575 254.771 39.0386L253.772 40.771ZM258.213 41.8636C259.316 41.8636 260.35 41.7082 261.304 41.3846L260.662 39.4904C259.941 39.735 259.128 39.8636 258.213 39.8636V41.8636ZM261.304 41.3846C262.27 41.0573 263.115 40.5589 263.825 39.8832L262.446 38.435C261.962 38.8956 261.373 39.2495 260.662 39.4904L261.304 41.3846ZM263.825 39.8832C264.537 39.2047 265.072 38.3796 265.434 37.4257L263.564 36.7164C263.301 37.4102 262.926 37.9771 262.446 38.435L263.825 39.8832ZM264.433 38.0689L272.828 38.6228L272.96 36.6272L264.565 36.0732L264.433 38.0689ZM271.915 37.4183C271.524 39.2726 270.726 40.8768 269.521 42.2496L271.025 43.5686C272.462 41.9301 273.412 40.0115 273.872 37.8317L271.915 37.4183ZM269.521 42.2501C268.33 43.6096 266.775 44.6892 264.827 45.4763L265.577 47.3306C267.777 46.4414 269.603 45.1916 271.025 43.5681L269.521 42.2501ZM264.831 45.4749C262.912 46.2425 260.663 46.6392 258.064 46.6392V48.6392C260.864 48.6392 263.373 48.212 265.573 47.3319L264.831 45.4749Z" fill="black" mask="url(#path-1-outside-1_1_111)"/>
</svg>
